HIERARCHY
ROOT Joint1
{
	OFFSET 0.000000 0.000000 0.000000
	CHANNELS 6 Xposition Yposition Zposition Xrotation Yrotation Zrotation
	JOINT Joint2
	{
		OFFSET -0.000000 0.000000 1.456275
		CHANNELS 6 Xposition Yposition Zposition Xrotation Yrotation Zrotation
		JOINT Joint3
		{
			OFFSET -0.000000 0.000002 1.471446
			CHANNELS 6 Xposition Yposition Zposition Xrotation Yrotation Zrotation
			JOINT Joint4
			{
				OFFSET 0.625745 0.000000 0.917755
				CHANNELS 6 Xposition Yposition Zposition Xrotation Yrotation Zrotation
				JOINT Joint5
				{
					OFFSET -0.629534 0.000001 0.940221
					CHANNELS 6 Xposition Yposition Zposition Xrotation Yrotation Zrotation
					JOINT Joint6
					{
						OFFSET -0.000001 0.113772 1.960660
						CHANNELS 6 Xposition Yposition Zposition Xrotation Yrotation Zrotation
						JOINT Joint7
						{
							OFFSET -0.669733 -0.113771 0.388340
							CHANNELS 6 Xposition Yposition Zposition Xrotation Yrotation Zrotation
							End Site
							{
								OFFSET 0.005509 0.005509 0.438980
							}
						}
					}
				}
			}
		}
	}
}
MOTION
Frames: 19
Frame Time: 0.041667
0.000000 0.000000 0.000000 -0.000000 1.019410 -56.231756 -0.000000 0.000000 1.456275 0.000001 -40.667957 -0.000001 -0.000000 0.000002 1.471446 -0.000000 -1.133455 59.637851 0.625745 0.000000 0.917755 0.000011 93.106646 -0.000010 -0.629534 0.000001 0.940221 -0.000001 1.709735 57.978539 -0.000001 0.113772 1.960660 -88.303875 106.800895 0.000014 -0.669733 -0.113771 0.388340 0.288643 2.766167 57.283256 
0.000000 0.000000 0.000000 -0.000000 1.019410 -57.414461 -0.000000 0.000000 1.456275 0.000000 -40.577327 -0.000003 -0.000000 0.000002 1.471446 -0.000004 -1.133455 60.892967 0.625745 0.000000 0.917755 0.000021 92.224991 -0.000025 -0.629533 0.000001 0.940221 -0.000001 1.709736 59.198315 -0.000002 0.113772 1.960661 -88.303875 107.154747 0.000009 -0.669734 -0.113771 0.388340 0.294411 2.737770 55.650302 
0.000000 0.000000 0.000000 -0.000000 1.019410 -59.005451 -0.000000 0.000000 1.456275 0.000000 -40.455402 -0.000003 -0.000000 0.000002 1.471446 -0.000004 -1.133456 62.581362 0.625745 0.000000 0.917755 0.000152 91.038990 0.000005 -0.629534 0.000001 0.940221 -0.000002 1.709736 60.839186 -0.000001 0.113772 1.960660 -88.303875 107.630749 0.000009 -0.669733 -0.113771 0.388340 0.300887 2.699333 53.453689 
0.000000 0.000000 0.000000 -0.000000 1.019410 -60.791648 -0.000000 0.000000 1.456275 0.000001 -40.318518 0.000000 -0.000000 0.000002 1.471446 -0.000005 -1.133457 64.476904 0.625745 0.000000 0.917755 -0.000329 89.707486 0.000358 -0.629534 0.000001 0.940221 -0.000001 1.709738 62.681336 -0.000000 0.113772 1.960660 -88.303868 108.165164 0.000007 -0.669733 -0.113771 0.388340 0.306395 2.655924 50.987687 
0.000000 0.000000 0.000000 -0.000000 1.019410 -62.512808 -0.000000 -0.000000 1.456275 -0.000000 -40.186620 0.000001 -0.000000 0.000002 1.471446 -0.000004 -1.133459 66.303447 0.625744 0.000000 0.917755 -0.000026 88.424462 0.000043 -0.629533 0.000001 0.940221 -0.000002 1.709737 64.456427 -0.000000 0.113772 1.960660 -88.303868 108.680105 0.000007 -0.669734 -0.113771 0.388340 0.309924 2.613907 48.611546 
0.000000 0.000000 0.000000 -0.000000 1.019410 -64.168835 -0.000000 0.000000 1.456275 0.000000 -40.059712 0.000002 -0.000000 0.000002 1.471446 -0.000003 -1.133454 68.060861 0.625745 0.000000 0.917755 -0.000019 87.189974 0.000009 -0.629533 0.000001 0.940221 -0.000003 1.709734 66.164357 -0.000001 0.113772 1.960661 -88.303868 109.175581 0.000007 -0.669734 -0.113771 0.388341 0.311673 2.573374 46.325396 
0.000000 0.000000 0.000000 -0.000000 1.019410 -65.824780 -0.000000 -0.000000 1.456275 0.000000 -39.932807 0.000002 -0.000000 0.000002 1.471446 -0.000003 -1.133453 69.818194 0.625744 0.000000 0.917754 -0.000006 85.955561 0.000007 -0.629534 0.000001 0.940221 -0.000003 1.709737 67.872191 -0.000000 0.113773 1.960660 -88.303875 109.671016 0.000006 -0.669734 -0.113771 0.388340 0.311803 2.532809 44.039441 
0.000000 0.000000 0.000000 -0.000000 1.019410 -67.546022 -0.000000 -0.000000 1.456275 -0.000000 -39.800899 0.000002 -0.000000 0.000002 1.471446 -0.000006 -1.133452 71.644819 0.625745 0.000000 0.917755 -0.000007 84.672462 0.000007 -0.629534 0.000001 0.940221 -0.000002 1.709735 69.647384 -0.000001 0.113772 1.960660 -88.303875 110.186005 0.000004 -0.669733 -0.113771 0.388340 0.310221 2.490671 41.663406 
0.000000 0.000000 0.000000 -0.000000 1.019410 -69.332663 -0.000000 0.000000 1.456275 -0.000002 -39.663974 -0.000001 -0.000000 0.000002 1.471446 -0.000004 -1.133456 73.540831 0.625745 0.000000 0.917755 -0.000006 83.340623 0.000006 -0.629534 0.000000 0.940221 -0.000000 1.709734 71.490005 -0.000001 0.113772 1.960661 -88.303875 110.720542 0.000006 -0.669734 -0.113771 0.388340 0.306731 2.447042 39.197185 
0.000000 0.000000 0.000000 -0.000000 1.019410 -70.923209 -0.000000 -0.000000 1.456275 -0.000000 -39.542089 -0.000001 -0.000000 0.000002 1.471446 -0.000005 -1.133454 75.228762 0.625745 0.000000 0.917755 -0.000006 82.154950 0.000004 -0.629533 0.000001 0.940221 -0.000002 1.709735 73.130398 -0.000000 0.113772 1.960660 -88.303875 111.196422 0.000005 -0.669733 -0.113771 0.388341 0.302044 2.408359 37.001703 
0.000000 0.000000 0.000000 -0.000000 1.019410 -72.103787 -0.000000 0.000000 1.456275 -0.000001 -39.451617 -0.000002 -0.000000 0.000002 1.471445 -0.000002 -1.133455 76.481624 0.625745 0.000000 0.917755 0.000004 81.274893 0.000008 -0.629534 0.000001 0.940220 -0.000002 1.709735 74.347975 -0.000001 0.113772 1.960661 -88.303875 111.549632 0.000006 -0.669733 -0.113771 0.388340 0.297611 2.379777 35.372150 
0.000000 0.000000 0.000000 -0.000000 1.019410 -73.112490 -0.000000 0.000000 1.456275 -0.000002 -39.374319 -0.000000 -0.000001 0.000002 1.471446 -0.000004 -1.133453 77.552072 0.625745 0.000000 0.917755 -0.000008 80.522958 0.000005 -0.629534 0.000001 0.940221 -0.000002 1.709736 75.388281 -0.000001 0.113772 1.960660 -88.303875 111.851431 0.000007 -0.669733 -0.113771 0.388340 0.293177 2.355465 33.979874 
0.000000 0.000000 0.000000 -0.000000 1.019410 -74.300396 -0.000000 0.000000 1.456275 0.000000 -39.283280 0.000001 -0.000000 0.000002 1.471446 -0.000005 -1.133455 78.812706 0.625745 0.000000 0.917755 -0.000000 79.637438 0.000007 -0.629534 0.000001 0.940221 -0.000003 1.709736 76.613426 -0.000001 0.113772 1.960661 -88.303875 112.206846 0.000010 -0.669733 -0.113771 0.388340 0.287204 2.326981 32.340256 
0.000000 0.000000 0.000000 -0.000000 1.019410 -75.901024 -0.000000 -0.000000 1.456275 0.000001 -39.160616 -0.000001 -0.000000 0.000002 1.471446 -0.000003 -1.133452 80.511333 0.625745 0.000000 0.917755 -0.000002 78.444251 0.000005 -0.629534 0.000001 0.940221 -0.000002 1.709736 78.264201 -0.000001 0.113772 1.960661 -88.303875 112.685731 0.000008 -0.669733 -0.113771 0.388340 0.277863 2.288897 30.131041 
0.000000 0.000000 0.000000 -0.000000 1.019410 -77.677583 -0.000000 0.000000 1.456275 0.000001 -39.024470 0.000000 -0.000000 0.000002 1.471446 -0.000004 -1.133455 82.396656 0.625745 0.000000 0.917755 0.000002 77.119919 0.000005 -0.629534 0.000001 0.940221 -0.000002 1.709736 80.096440 -0.000002 0.113772 1.960661 -88.303875 113.217263 0.000009 -0.669733 -0.113771 0.388341 0.265788 2.247082 27.679065 
0.000000 0.000000 0.000000 -0.000000 1.019410 -79.364920 -0.000000 0.000000 1.456275 0.000001 -38.895158 0.000000 -0.000000 0.000002 1.471446 -0.000005 -1.133454 84.187300 0.625745 0.000001 0.917755 -0.000004 75.862098 0.000003 -0.629534 0.000001 0.940220 -0.000002 1.709735 81.836649 -0.000001 0.113772 1.960660 -88.303882 113.722103 0.000006 -0.669734 -0.113771 0.388341 0.252674 2.207880 25.350278 
0.000000 0.000000 0.000000 -0.000000 1.019410 -81.054777 -0.000000 -0.000000 1.456275 -0.000000 -38.765657 0.000000 -0.000000 0.000002 1.471446 -0.000005 -1.133454 85.980607 0.625745 0.000001 0.917755 -0.000011 74.602407 0.000003 -0.629533 0.000001 0.940221 -0.000001 1.709734 83.579454 -0.000001 0.113772 1.960661 -88.303882 114.227688 0.000003 -0.669733 -0.113771 0.388341 0.237953 2.169183 23.018086 
0.000000 0.000000 0.000000 -0.000000 1.019410 -82.836357 -0.000000 0.000000 1.456275 -0.000000 -38.629125 -0.000000 -0.000000 0.000002 1.471445 -0.000004 -1.133447 87.871258 0.625745 0.000000 0.917755 -0.000001 73.274338 0.000003 -0.629534 0.000001 0.940221 -0.000002 1.709736 85.416864 -0.000001 0.113772 1.960661 -88.303875 114.760702 0.000007 -0.669733 -0.113771 0.388340 0.220738 2.129074 20.559337 
0.000000 0.000000 0.000000 -0.000000 1.019410 -84.431964 -0.000000 0.000000 1.456275 0.000000 -38.506848 -0.000000 -0.000000 0.000002 1.471446 -0.000005 -1.133455 89.564551 0.625745 0.000000 0.917755 -0.000006 72.084894 0.000003 -0.629533 0.000001 0.940221 -0.000001 1.709735 87.062475 -0.000002 0.113773 1.960661 -88.303875 115.238105 0.000008 -0.669733 -0.113771 0.388339 0.203873 2.093803 18.357295 
